<?xml version="1.0" encoding="utf-8"?>
<!-- Generator: Adobe Illustrator 24.1.0, SVG Export Plug-In . SVG Version: 6.00 Build 0)  -->
<svg version="1.1" id="Layer_1" xmlns="http://www.w3.org/2000/svg" xmlns:xlink="http://www.w3.org/1999/xlink" x="0px" y="0px"
	 viewBox="0 0 77 36" style="enable-background:new 0 0 77 36;" xml:space="preserve">
<style type="text/css">
	.st0{fill-rule:evenodd;clip-rule:evenodd;fill:#151515;}
	.st1{fill:none;stroke:#151515;stroke-width:5;}
</style>
<desc>Created with Sketch.</desc>
<g id="Page-1">
	<g id="Service" transform="translate(-208.000000, -167.000000)">
		<g id="Group-2" transform="translate(208.000000, 167.000000)">
			<path id="GO" class="st0" d="M25.46,17.82h5.9v13.39c-1.73,1.38-3.74,2.43-6.05,3.17s-4.67,1.1-7.1,1.1
				c-3.42,0-6.51-0.74-9.26-2.23c-2.75-1.49-4.91-3.54-6.48-6.17S0.11,21.5,0.11,18.2s0.78-6.26,2.35-8.88s3.74-4.68,6.5-6.17
				s5.88-2.23,9.34-2.23c2.82,0,5.38,0.46,7.68,1.39s4.24,2.29,5.81,4.08l-3.94,3.84c-2.56-2.56-5.65-3.84-9.26-3.84
				c-2.37,0-4.47,0.5-6.31,1.49S9,10.26,7.96,12.06S6.4,15.9,6.4,18.2c0,2.24,0.52,4.26,1.56,6.05c1.04,1.79,2.48,3.2,4.32,4.22
				s3.93,1.54,6.26,1.54c2.62,0,4.93-0.58,6.91-1.73v-4.82h-8.38v-5.65H25.46z M53.98,35.48c-3.42,0-6.51-0.74-9.26-2.23
				c-2.75-1.49-4.91-3.55-6.48-6.19c-1.57-2.64-2.35-5.59-2.35-8.86s0.78-6.22,2.35-8.86c1.57-2.64,3.73-4.7,6.48-6.19
				s5.84-2.23,9.26-2.23c3.42,0,6.51,0.74,9.26,2.23s4.91,3.54,6.48,6.17c1.57,2.62,2.35,5.58,2.35,8.88s-0.78,6.26-2.35,8.88
				c-1.57,2.62-3.73,4.68-6.48,6.17C60.49,34.74,57.4,35.48,53.98,35.48z M53.98,30.01c2.24,0,4.26-0.5,6.05-1.51
				c1.79-1.01,3.2-2.42,4.22-4.22c1.02-1.81,1.54-3.83,1.54-6.07s-0.51-4.26-1.54-6.07c-1.02-1.81-2.43-3.22-4.22-4.22
				c-1.79-1.01-3.81-1.51-6.05-1.51c-2.24,0-4.26,0.5-6.05,1.51c-1.79,1.01-3.2,2.42-4.22,4.22c-1.02,1.81-1.54,3.83-1.54,6.07
				s0.51,4.26,1.54,6.07c1.02,1.81,2.43,3.22,4.22,4.22C49.72,29.5,51.74,30.01,53.98,30.01z"/>
			<polyline id="Path-3-Copy" class="st1" points="48,22.05 53.95,15.07 59.02,20.05 74.97,2 			"/>
		</g>
	</g>
</g>
</svg>
